<svg xmlns="http://www.w3.org/2000/svg" xmlns:xlink="http://www.w3.org/1999/xlink" version="1.1" x="0px" y="0px" viewBox="0 0 100 125" enable-background="new 0 0 100 100" xml:space="preserve"><g><circle cx="45.5" cy="78.856" r="1.769"/><path fill="#FDFEFD" d="M88.938,20.313c0-4.687-3.813-8.5-8.5-8.5s-8.5,3.813-8.5,8.5c0,0.458,0.036,0.911,0.109,1.358   c-2.444,0.711-4.234,2.971-4.234,5.642c0,0.733,0.136,1.45,0.397,2.123c-0.164,0.189-0.313,0.391-0.445,0.603   c-0.181-0.027-0.363-0.041-0.549-0.041c-1.72,0-3.156,1.179-3.579,2.768c-1.317-0.529-3.148-0.682-4.742,0.912l-2.188,2.189   l-5.897-5.97c-2.584-2.584-6.788-2.584-9.371,0L25.49,45.845c-1.113,1.113-1.791,2.588-1.917,4.155L23.5,82.5   c0,3.584,2.916,6.5,6.5,6.5h32c3.584,0,6.5-2.916,6.5-6.5V50.208c0,0,0.118-2.311-1.934-4.363l-3.533-3.576l2.227-2.23   c0.744-0.745,1.142-1.697,1.234-2.679c0.233,0.046,0.475,0.073,0.722,0.073c0.815,0,1.586-0.266,2.214-0.731   c0.717,0.419,1.536,0.646,2.388,0.646c4.995-0.598,4.783-4.897,4.781-4.954c0.157-0.09,0.312-0.188,0.46-0.293   c0.981,0.701,2.155,1.086,3.379,1.086c3.239,0,5.875-2.636,5.875-5.875c0-0.268-0.021-0.536-0.063-0.809   C87.948,24.906,88.938,22.658,88.938,20.313z M48.5,86h-5V74c0-1.379,1.122-2.5,2.5-2.5c1.379,0,2.5,1.121,2.5,2.5V86z M65.5,82.5   c0,1.93-1.57,3.5-3.5,3.5H51.5V74c0-3.032-2.468-5.5-5.5-5.5c-3.033,0-5.5,2.468-5.5,5.5v12H30c-1.93,0-3.5-1.57-3.5-3.5V52h39   V82.5z M64.637,47.968c0.323,0.323,0.524,0.695,0.651,1.033H26.822c0.165-0.348,0.408-0.716,0.789-1.035L43.56,32.018   c1.414-1.414,3.713-1.414,5.127,0L64.637,47.968z M63.139,37.918l-2.214,2.217l-2.106-2.134l2.199-2.204   c0.826-0.827,1.787-0.217,2.063,0.058C63.645,36.42,63.673,37.384,63.139,37.918z M67.874,33.998   c-0.113,0.264-0.372,0.435-0.658,0.435c-0.396,0-0.718-0.322-0.718-0.718s0.322-0.718,0.718-0.718c0.156,0,0.304,0.055,0.439,0.164   l0.432,0.344L67.874,33.998z M83.686,24.741l-0.877,0.645c0,0,0.361,0.602,0.504,1.926c-0.063,1.563-1.29,2.875-2.875,2.875   c-0.851,0-1.657-0.391-2.214-1.072l-1.161-1.422c0,0-0.646,3.306-4.089,2.802c0.776,1.004,0.628,2.068,0.628,2.068   c0,0.984-0.801,1.784-1.784,1.784c-0.537,0-1.044-0.25-1.39-0.688c0,0-0.886-1.494,0.45-2.603l1.326-0.831   c-1.588-1.523-1.392-2.915-1.392-2.915c0.646-5.021,5.439-2.711,5.439-2.711l-0.902-2.205c0,0-2.267-7.063,5.088-7.584   c3.032,0,5.5,2.467,5.5,5.5C85.938,22.075,85.117,23.689,83.686,24.741z"/></g></svg>
