<svg xmlns="http://www.w3.org/2000/svg" xmlns:xlink="http://www.w3.org/1999/xlink" version="1.1" x="0px" y="0px" viewBox="0 0 100 125" enable-background="new 0 0 100 100" xml:space="preserve"><path fill='#F2F4F1' d="M49.999,55.359c10.102,0,18.32-9.799,18.32-21.844c0-11.48-7.534-19.497-18.32-19.497c-10.787,0-18.321,8.017-18.321,19.497  C31.678,45.56,39.896,55.359,49.999,55.359z M49.999,20.119c7.31,0,12.22,5.384,12.22,13.395c0,8.68-5.482,15.743-12.22,15.743  c-6.738,0-12.22-7.063-12.22-15.743C37.779,25.503,42.69,20.119,49.999,20.119z M51.873,57.392h-3.749  c-17.765,0-29.701,10.265-29.701,25.54c0,1.684,1.366,3.049,3.05,3.049c1.685,0,3.051-1.365,3.051-3.049  c0-14.349,12.712-19.438,23.599-19.438h3.75c10.887,0,23.602,5.09,23.602,19.438c0,1.684,1.365,3.049,3.051,3.049  c1.684,0,3.049-1.365,3.049-3.049C81.576,67.656,69.641,57.392,51.873,57.392z"/>
</svg>
