<svg width="100" height="100" xmlns="http://www.w3.org/2000/svg">

 <g>
  <title>background</title>
  <rect fill='none' id="canvas_background" height="402" width="582" y="-1" x="-1"/>
 </g>
 <g>
  <title>Layer 1</title>
  <g id="svg_1">
   <path background="#ffffff" fill='#ffffff' id="svg_2" d="m78.85,59.475c-0.246,-0.058 -0.609,-0.175 -1.057,-0.271c-0.906,-0.194 -2.178,-0.391 -3.664,-0.484c-1.486,-0.089 -3.188,-0.063 -4.975,0.106c-1.788,0.174 -3.657,0.51 -5.491,0.969c-1.831,0.468 -3.634,1.062 -5.284,1.764c-0.506,0.216 -0.992,0.444 -1.466,0.671c0.298,-0.255 0.595,-0.509 0.901,-0.785c0.812,-0.734 1.654,-1.526 2.48,-2.374c1.664,-1.697 3.293,-3.608 4.813,-5.611c1.507,-2.007 2.911,-4.097 4.085,-6.158c1.182,-2.062 2.164,-4.073 2.904,-5.878c0.738,-1.803 1.242,-3.39 1.543,-4.542c0.158,-0.568 0.238,-1.05 0.318,-1.362c0.062,-0.317 0.086,-0.496 0.086,-0.496s-0.168,0.071 -0.453,0.222c-0.279,0.155 -0.723,0.364 -1.229,0.669c-1.027,0.604 -2.42,1.516 -3.953,2.718c-1.537,1.197 -3.203,2.691 -4.87,4.383c-1.663,1.692 -3.296,3.609 -4.82,5.607c-1.514,1.999 -2.913,4.091 -4.098,6.151c-0.495,0.852 -0.941,1.709 -1.364,2.541c0.375,-1.728 0.707,-3.607 0.95,-5.582c0.354,-2.836 0.524,-5.863 0.524,-8.888c-0.009,-3.025 -0.178,-6.053 -0.541,-8.89c-0.346,-2.837 -0.871,-5.484 -1.459,-7.755c-0.587,-2.269 -1.25,-4.161 -1.787,-5.484c-0.533,-1.323 -0.946,-2.08 -0.946,-2.08s-0.415,0.757 -0.944,2.08c-0.539,1.323 -1.199,3.215 -1.785,5.484c-0.589,2.271 -1.111,4.918 -1.465,7.755c-0.355,2.837 -0.529,5.865 -0.537,8.89c0.001,3.025 0.172,6.052 0.525,8.888c0.243,1.978 0.577,3.854 0.949,5.584c-0.422,-0.834 -0.867,-1.691 -1.364,-2.543c-1.183,-2.061 -2.584,-4.152 -4.099,-6.151c-1.521,-1.999 -3.156,-3.915 -4.82,-5.607c-1.664,-1.692 -3.333,-3.186 -4.871,-4.383c-1.533,-1.202 -2.928,-2.115 -3.953,-2.718c-0.504,-0.305 -0.945,-0.515 -1.226,-0.669c-0.288,-0.151 -0.454,-0.222 -0.454,-0.222s0.022,0.178 0.089,0.496c0.075,0.312 0.157,0.794 0.315,1.362c0.301,1.152 0.805,2.739 1.547,4.542c0.735,1.805 1.719,3.815 2.896,5.878c1.181,2.061 2.581,4.151 4.091,6.158c1.52,2.003 3.147,3.914 4.81,5.611c0.829,0.848 1.672,1.64 2.482,2.374c0.306,0.276 0.604,0.53 0.902,0.785c-0.475,-0.227 -0.959,-0.455 -1.466,-0.671c-1.653,-0.702 -3.454,-1.296 -5.288,-1.764c-1.836,-0.459 -3.699,-0.795 -5.486,-0.969c-1.787,-0.17 -3.49,-0.195 -4.977,-0.106c-1.486,0.094 -2.759,0.29 -3.662,0.484c-0.45,0.096 -0.814,0.213 -1.061,0.271c-0.244,0.071 -0.379,0.117 -0.379,0.117s0.095,0.11 0.278,0.285c0.186,0.171 0.45,0.45 0.802,0.74c0.702,0.604 1.722,1.39 2.986,2.179c1.262,0.79 2.771,1.574 4.421,2.28s3.45,1.305 5.282,1.775c1.835,0.468 3.701,0.809 5.486,0.977c1.168,0.113 2.293,0.158 3.35,0.156c-1.226,0.464 -2.486,1.054 -3.688,1.759c-1.142,0.665 -2.229,1.414 -3.206,2.199c-0.976,0.787 -1.838,1.604 -2.537,2.377c-0.696,0.767 -1.234,1.487 -1.588,2.025c-0.354,0.545 -0.529,0.899 -0.529,0.899s0.394,0.02 1.042,-0.015c0.645,-0.039 1.535,-0.145 2.55,-0.368c1.017,-0.219 2.156,-0.555 3.32,-1.018c1.166,-0.457 2.361,-1.024 3.505,-1.686c2.291,-1.312 4.356,-3.018 5.747,-4.566c0.698,-0.772 1.23,-1.493 1.586,-2.034c0.103,-0.16 0.189,-0.296 0.256,-0.417c0.066,-0.017 0.127,-0.036 0.167,-0.046c0.044,0.01 0.101,0.029 0.17,0.046c0.067,0.121 0.151,0.257 0.255,0.417c0.352,0.541 0.889,1.262 1.585,2.034c1.393,1.549 3.452,3.257 5.749,4.566c1.14,0.661 2.34,1.229 3.502,1.686c1.169,0.463 2.304,0.799 3.322,1.018c1.016,0.224 1.904,0.329 2.551,0.368c0.647,0.034 1.042,0.015 1.042,0.015s-0.172,-0.353 -0.527,-0.898c-0.354,-0.538 -0.893,-1.259 -1.588,-2.025c-0.699,-0.773 -1.559,-1.59 -2.537,-2.377c-0.973,-0.785 -2.062,-1.534 -3.211,-2.199c-1.195,-0.705 -2.461,-1.295 -3.685,-1.759c1.06,0.002 2.185,-0.043 3.351,-0.156c1.787,-0.168 3.651,-0.509 5.482,-0.977c1.836,-0.471 3.637,-1.069 5.289,-1.775c1.646,-0.706 3.154,-1.49 4.42,-2.28c1.26,-0.789 2.285,-1.575 2.984,-2.179c0.354,-0.29 0.617,-0.569 0.801,-0.74c0.184,-0.175 0.279,-0.285 0.279,-0.285s-0.134,-0.047 -0.38,-0.118z"/>
   <path fill='#6338A9' id="svg_3" d="m49.998,3.229c-25.789,0 -46.769,20.981 -46.769,46.771c0,25.793 20.98,46.772 46.77,46.772c25.791,0 46.773,-20.979 46.773,-46.772c-0.001,-25.79 -20.983,-46.771 -46.774,-46.771zm0,86.648c-21.988,0 -39.878,-17.886 -39.878,-39.877c0,-21.99 17.89,-39.879 39.878,-39.879c21.99,0 39.881,17.889 39.881,39.879c0,21.991 -17.891,39.877 -39.881,39.877z"/>
  </g>
 </g>
</svg>
